<svg xmlns="http://www.w3.org/2000/svg" xmlns:xlink="http://www.w3.org/1999/xlink" fill="none" width="1048" height="681"><defs><path id="c" stroke="#50F" stroke-linejoin="bevel" stroke-opacity=".5" d="M11 323.131h49.312V53.289h33.714l29.688 269.842h124.287V11h-47.299v267.829h-34.72L136.294 11H11v312.131Zm324.053 0h-47.3V11H494.06v312.131h-42.771V191.734H335.053v131.397Zm249.581 0h-46.796V11h122.777l30.192 267.829h36.229V11h47.803v312.131H652.061L620.864 53.289h-36.23V323.13Zm452.366 0H816.604V11H1037v312.131Zm-821.706 33.227H11V670h41.765V535.079h162.529V356.358ZM258.065 670h45.79V535.079h114.224V670h45.287V356.358H258.065V670Zm245.556-42.792V670h248.072V484.735H549.914v-80.55h201.779v-47.827H503.621v178.721h199.262v92.129H503.621Zm288.327 0V670H1037V484.735H836.731v-80.55H1037v-47.827H791.948v178.721h202.281v92.129H791.948Z"/><path id="d" stroke="#50F" stroke-linejoin="bevel" stroke-opacity=".5" d="M451.288 142.901H335.052V58.323h116.236v84.578Zm536.399 130.39H863.902V58.323h123.785v214.968ZM170.5 490.588H52.754V404.5H170.5v86.088Zm247.578-.315H303.854v-86.088h114.224v86.088Z"/></defs><g opacity=".7"><g stroke="#50F" stroke-linejoin="bevel" stroke-opacity=".5" filter="url(#a)"><path d="M11 323.131h49.312V53.289h33.714l29.688 269.842h124.287V11h-47.299v267.829h-34.72L136.294 11H11v312.131Zm324.053 0h-47.3V11H494.06v312.131h-42.771V191.734H335.053v131.397Zm249.581 0h-46.796V11h122.777l30.192 267.829h36.229V11h47.803v312.131H652.061L620.864 53.289h-36.23V323.13Zm452.366 0H816.604V11H1037v312.131Zm-821.706 33.227H11V670h41.765V535.079h162.529V356.358ZM258.065 670h45.79V535.079h114.224V670h45.287V356.358H258.065V670Zm245.556-42.792V670h248.072V484.735H549.914v-80.55h201.779v-47.827H503.621v178.721h199.262v92.129H503.621Zm288.327 0V670H1037V484.735H836.731v-80.55H1037v-47.827H791.948v178.721h202.281v92.129H791.948Z"/></g><g stroke="#50F" stroke-linejoin="bevel" stroke-opacity=".5" filter="url(#b)"><path d="M451.288 142.901H335.052V58.323h116.236v84.578Zm536.399 130.39H863.902V58.323h123.785v214.968ZM170.5 490.588H52.754V404.5H170.5v86.088Zm247.578-.315H303.854v-86.088h114.224v86.088Z"/></g><use xlink:href="#c" stroke-linejoin="bevel" stroke-opacity=".5"/><use xlink:href="#d" stroke-linejoin="bevel" stroke-opacity=".5"/><mask id="e" width="937" height="435" x="52" y="57" maskUnits="userSpaceOnUse" style="mask-type:alpha"><use xlink:href="#d" stroke-linejoin="bevel"/></mask><g mask="url(#e)"><path fill="url(#f)" fill-opacity=".5" d="M-21-16h1090v709H-21V-16Z"/></g><mask id="g" width="1028" height="661" x="10" y="10" maskUnits="userSpaceOnUse" style="mask-type:alpha"><use xlink:href="#c" stroke-linejoin="bevel"/></mask><g mask="url(#g)"><path fill="url(#h)" fill-opacity=".5" d="M-21-16h1090v709H-21V-16Z"/></g></g><defs><linearGradient id="f" x1="-2.5" x2="1037" y1="382.5" y2="231.5" gradientUnits="userSpaceOnUse"><stop stop-color="#50F"/><stop offset=".723" stop-color="#FF8EFB"/><stop offset="1" stop-color="#50F"/></linearGradient><linearGradient id="h" x1="-2.5" x2="1037" y1="382.5" y2="231.5" gradientUnits="userSpaceOnUse"><stop stop-color="#50F"/><stop offset=".723" stop-color="#FF8EFB"/><stop offset="1" stop-color="#50F"/></linearGradient><filter id="a" width="1047" height="680" x=".5" y=".5" color-interpolation-filters="sRGB" filterUnits="userSpaceOnUse"><feFlood flood-opacity="0" result="BackgroundImageFix"/><feBlend in="SourceGraphic" in2="BackgroundImageFix" result="shape"/><feGaussianBlur result="effect1_foregroundBlur_1027_811" stdDeviation="5"/></filter><filter id="b" width="955.934" height="453.265" x="42.254" y="47.823" color-interpolation-filters="sRGB" filterUnits="userSpaceOnUse"><feFlood flood-opacity="0" result="BackgroundImageFix"/><feBlend in="SourceGraphic" in2="BackgroundImageFix" result="shape"/><feGaussianBlur result="effect1_foregroundBlur_1027_811" stdDeviation="5"/></filter></defs></svg>