<svg xmlns="http://www.w3.org/2000/svg"><defs><svg id="chevron-left" viewBox="0 0 12 29" fill="none"><path d="M11 1 1 14.5 11 28" stroke="currentColor" stroke-width="1.573"/></svg><svg id="chevron-right" viewBox="0 0 12 29" fill="none"><path d="m1 28 10-13.5L1 1" stroke="currentColor" stroke-width="1.573"/></svg><svg id="close" viewBox="0 0 14 15" fill="none"><path d="m.637 1 12.728 12.728m-12.728 0L13.365 1" stroke="#eaebec"/></svg><svg id="discord" viewBox="0 0 12 13" fill="none"><path fill="#fff" d="M4.864 5.73c-.357 0-.64.311-.64.69 0 .38.29.691.64.691.358 0 .64-.31.64-.69.006-.38-.282-.69-.64-.69Zm2.29 0c-.358 0-.64.311-.64.69 0 .38.288.691.64.691.357 0 .64-.31.64-.69 0-.38-.283-.69-.64-.69Z"/><path fill="#fff" d="M10.202.512H1.797C1.09.512.512 1.084.512 1.793v8.41c0 .708.577 1.28 1.285 1.28H8.91l-.333-1.15.803.74.759.697 1.348 1.181V1.793c0-.709-.577-1.28-1.285-1.28ZM7.78 8.635s-.226-.268-.414-.504c.821-.23 1.135-.74 1.135-.74a3.601 3.601 0 0 1-.721.367c-.314.13-.615.218-.91.267a4.43 4.43 0 0 1-1.624-.006 5.299 5.299 0 0 1-.922-.267 3.69 3.69 0 0 1-.458-.212c-.019-.012-.038-.018-.056-.03a.068.068 0 0 1-.025-.02c-.113-.062-.176-.105-.176-.105s.301.497 1.098.734c-.189.236-.42.516-.42.516C2.9 8.59 2.373 7.69 2.373 7.69c0-2.003.904-3.626.904-3.626.903-.672 1.762-.654 1.762-.654l.063.075c-1.13.324-1.65.815-1.65.815s.138-.075.37-.18c.671-.293 1.204-.374 1.424-.392.038-.007.069-.013.107-.013a5.143 5.143 0 0 1 3.155.585s-.496-.467-1.562-.79l.087-.1s.86-.018 1.763.654c0 0 .903 1.623.903 3.626 0 0-.533.901-1.92.945Z"/></svg><svg id="link-underline" viewBox="0 0 59 16" fill="none"><path d="M59 15H7L1 8V0" stroke="currentColor" stroke-width="2"/></svg><svg id="menu" viewBox="0 0 18 14" fill="none"><path d="M0 1h18M0 7h18M0 13h18" stroke="#eaebec"/></svg><svg id="metamask" viewBox="0 0 15 14" fill="none"><path fill="#fff" stroke="#fff" stroke-linecap="round" stroke-linejoin="round" stroke-width=".072" d="M13.528.78 8.293 4.67l.968-2.294L13.53.78ZM1.445.78 6.64 4.706l-.921-2.331L1.445.78Zm10.203 9.014-1.394 2.136 2.983.821.858-2.91-2.447-.047ZM.895 9.841l.852 2.91 2.983-.82-1.394-2.137-2.441.047Z"/><path fill="#fff" stroke="#fff" stroke-linecap="round" stroke-linejoin="round" stroke-width=".072" d="M4.562 6.184 3.73 7.442l2.963.132-.105-3.184-2.026 1.794Zm5.855 0-2.052-1.83-.068 3.22 2.957-.132-.837-1.258ZM4.73 11.93l1.779-.868-1.536-1.2-.243 2.068Zm3.743-.868 1.783.868-.247-2.068-1.536 1.2Zm1.783.869-1.783-.869.142 1.163-.016.49 1.657-.784Zm-5.526 0 1.658.784-.01-.49.131-1.162-1.779.868Zm-.004 0 .253-2.137-1.647.047 1.394 2.09Z"/><path fill="#fff" stroke="#fff" stroke-linecap="round" stroke-linejoin="round" stroke-width=".072" d="m9.996 9.794.253 2.136 1.394-2.089-1.647-.047Zm1.254-2.352-2.957.132.274 1.52.436-.915 1.053.479 1.194-1.216ZM4.926 8.658l1.053-.48.431.916.279-1.52-2.962-.132 1.2 1.216Z"/><path fill="#fff" stroke="#fff" stroke-linecap="round" stroke-linejoin="round" stroke-width=".072" d="m3.727 7.442 1.241 2.42-.042-1.204-1.2-1.216Zm6.33 1.216-.053 1.204 1.247-2.42-1.194 1.216ZM6.688 7.574l-.279 1.52.347 1.795.08-2.363-.148-.952Zm1.605 0-.142.947.063 2.367.353-1.794-.274-1.52Z"/><path fill="#fff" stroke="#fff" stroke-linecap="round" stroke-linejoin="round" stroke-width=".072" d="m8.567 9.094-.352 1.794.252.174 1.537-1.2.053-1.205-1.49.437ZM4.93 8.657l.042 1.205 1.536 1.2.253-.174-.347-1.794-1.484-.437Zm3.664 4.057.016-.489-.132-.116H6.495l-.121.116.01.49-1.657-.785.578.474 1.174.815h2.015l1.179-.815.579-.474-1.658.784Zm5.158-7.792.447-2.147L13.53.78 8.469 4.537l1.947 1.647 2.752.806.61-.71-.263-.19.42-.384-.325-.253.42-.32-.278-.211ZM.782 2.775l.447 2.147-.285.21.421.321-.32.253.42.384-.263.19.605.71 2.752-.806 1.947-1.647L1.444.781.781 2.775Zm12.384 4.214-2.752-.805.837 1.258-1.247 2.42 1.642-.02h2.446l-.926-2.853Z"/><path fill="#fff" stroke="#fff" stroke-linecap="round" stroke-linejoin="round" stroke-width=".072" d="m4.558 6.184-2.752.805-.915 2.852h2.441l1.637.021-1.242-2.42.831-1.258Zm3.735 1.39.174-3.037.8-2.162H5.715l.79 2.162.183 3.037.063.957.006 2.357h1.457l.01-2.357.07-.957Z"/></svg><svg id="twitter" viewBox="0 0 16 13"><path d="M16 1.5c-.6.3-1.2.4-1.9.5.7-.4 1.2-1 1.4-1.8-.6.4-1.3.6-2.1.8-.6-.6-1.5-1-2.4-1-2.1 0-3.7 2-3.2 4C5.1 3.9 2.7 2.6 1 .6.1 2.1.6 4 2 5c-.5 0-1-.2-1.5-.4 0 1.5 1.1 2.9 2.6 3.3-.5.1-1 .2-1.5.1.4 1.3 1.6 2.3 3.1 2.3-1.2.9-3 1.4-4.7 1.2 1.5.9 3.2 1.5 5 1.5 6.1 0 9.5-5.1 9.3-9.8.7-.4 1.3-1 1.7-1.7Z" fill="#fff"/></svg><svg id="opensea" viewBox="0 0 15 14" fill="none"><path fill="#fff" stroke="#fff" stroke-linecap="round" stroke-linejoin="round" stroke-width=".072" d="M13.528.78 8.293 4.67l.968-2.294L13.53.78ZM1.445.78 6.64 4.706l-.921-2.331L1.445.78Zm10.203 9.014-1.394 2.136 2.983.821.858-2.91-2.447-.047ZM.895 9.841l.852 2.91 2.983-.82-1.394-2.137-2.441.047Z"/><path fill="#fff" stroke="#fff" stroke-linecap="round" stroke-linejoin="round" stroke-width=".072" d="M4.562 6.184 3.73 7.442l2.963.132-.105-3.184-2.026 1.794Zm5.855 0-2.052-1.83-.068 3.22 2.957-.132-.837-1.258ZM4.73 11.93l1.779-.868-1.536-1.2-.243 2.068Zm3.743-.868 1.783.868-.247-2.068-1.536 1.2Zm1.783.869-1.783-.869.142 1.163-.016.49 1.657-.784Zm-5.526 0 1.658.784-.01-.49.131-1.162-1.779.868Zm-.004 0 .253-2.137-1.647.047 1.394 2.09Z"/><path fill="#fff" stroke="#fff" stroke-linecap="round" stroke-linejoin="round" stroke-width=".072" d="m9.996 9.794.253 2.136 1.394-2.089-1.647-.047Zm1.254-2.352-2.957.132.274 1.52.436-.915 1.053.479 1.194-1.216ZM4.926 8.658l1.053-.48.431.916.279-1.52-2.962-.132 1.2 1.216Z"/><path fill="#fff" stroke="#fff" stroke-linecap="round" stroke-linejoin="round" stroke-width=".072" d="m3.727 7.442 1.241 2.42-.042-1.204-1.2-1.216Zm6.33 1.216-.053 1.204 1.247-2.42-1.194 1.216ZM6.688 7.574l-.279 1.52.347 1.795.08-2.363-.148-.952Zm1.605 0-.142.947.063 2.367.353-1.794-.274-1.52Z"/><path fill="#fff" stroke="#fff" stroke-linecap="round" stroke-linejoin="round" stroke-width=".072" d="m8.567 9.094-.352 1.794.252.174 1.537-1.2.053-1.205-1.49.437ZM4.93 8.657l.042 1.205 1.536 1.2.253-.174-.347-1.794-1.484-.437Zm3.664 4.057.016-.489-.132-.116H6.495l-.121.116.01.49-1.657-.785.578.474 1.174.815h2.015l1.179-.815.579-.474-1.658.784Zm5.158-7.792.447-2.147L13.53.78 8.469 4.537l1.947 1.647 2.752.806.61-.71-.263-.19.42-.384-.325-.253.42-.32-.278-.211ZM.782 2.775l.447 2.147-.285.21.421.321-.32.253.42.384-.263.19.605.71 2.752-.806 1.947-1.647L1.444.781.781 2.775Zm12.384 4.214-2.752-.805.837 1.258-1.247 2.42 1.642-.02h2.446l-.926-2.853Z"/><path fill="#fff" stroke="#fff" stroke-linecap="round" stroke-linejoin="round" stroke-width=".072" d="m4.558 6.184-2.752.805-.915 2.852h2.441l1.637.021-1.242-2.42.831-1.258Zm3.735 1.39.174-3.037.8-2.162H5.715l.79 2.162.183 3.037.063.957.006 2.357h1.457l.01-2.357.07-.957Z"/></svg></defs></svg>